<?xml version="1.0" encoding="iso-8859-1"?>
<!-- Uploaded to: SVG Repo, www.svgrepo.com, Generator: SVG Repo Mixer Tools -->
<svg height="800px" width="800px" version="1.1" id="Capa_1" xmlns="http://www.w3.org/2000/svg" xmlns:xlink="http://www.w3.org/1999/xlink" 
	 viewBox="0 0 296.001 296.001" xml:space="preserve">
<g>
	<path style="fill:#FFFFFF;" d="M147.667,75.558c1.147,0,2.261,0.141,3.335,0.384l21.292-21.292
		c-7.012-4.819-15.493-7.648-24.626-7.648c-24.035,0-43.59,19.555-43.59,43.59c0,24.035,19.555,43.589,43.59,43.589
		c24.034,0,43.588-19.554,43.588-43.589c0-9.133-2.828-17.614-7.648-24.626l-21.291,21.29c0.243,1.074,0.384,2.188,0.384,3.336
		c0,8.303-6.731,15.033-15.034,15.033c-8.302,0-15.033-6.73-15.033-15.033C132.633,82.286,139.365,75.558,147.667,75.558z"/>
	<path style="fill:#B4F5F5;" d="M220.746,75.586c-3.374-16.696-12.468-31.846-25.607-42.658C181.874,22.012,165.014,16,147.668,16
		c-17.348,0-34.207,6.012-47.473,16.928C87.055,43.74,77.961,58.89,74.587,75.586c-0.755,3.731-4.034,6.415-7.842,6.415H31.781
		l18.214,198h89.673V149.67c-29-3.776-51.756-28.821-51.756-59.079c0-32.858,26.815-59.59,59.673-59.59
		c32.856,0,59.463,26.731,59.463,59.59c0,30.028-22.38,54.927-51.38,58.994v130.416h90.34l18.213-198h-35.633
		C224.78,82.001,221.501,79.317,220.746,75.586z M110.001,197.668c4.418,0,8,3.582,8,8s-3.582,8-8,8s-8-3.582-8-8
		S105.583,197.668,110.001,197.668z M110.001,230.668c4.418,0,8,3.582,8,8s-3.582,8-8,8s-8-3.582-8-8
		S105.583,230.668,110.001,230.668z M77.001,246.668c-4.418,0-8-3.582-8-8s3.582-8,8-8s8,3.582,8,8S81.419,246.668,77.001,246.668z
		 M77.001,213.668c-4.418,0-8-3.582-8-8s3.582-8,8-8s8,3.582,8,8S81.419,213.668,77.001,213.668z M186.001,246.668
		c-4.418,0-8-3.582-8-8s3.582-8,8-8s8,3.582,8,8S190.419,246.668,186.001,246.668z M186.001,213.668c-4.418,0-8-3.582-8-8
		s3.582-8,8-8s8,3.582,8,8S190.419,213.668,186.001,213.668z M219.001,246.668c-4.418,0-8-3.582-8-8s3.582-8,8-8s8,3.582,8,8
		S223.419,246.668,219.001,246.668z M219.001,213.668c-4.418,0-8-3.582-8-8s3.582-8,8-8s8,3.582,8,8
		S223.419,213.668,219.001,213.668z"/>
	<path d="M278.9,68.609c-1.516-1.661-3.661-2.608-5.91-2.608h-38.105c-4.966-17.736-15.311-33.686-29.579-45.428
		C189.183,7.307,168.714,0,147.668,0c-21.047,0-41.518,7.307-57.639,20.573c-14.27,11.742-24.614,27.691-29.58,45.428H23.011
		c-2.249,0-4.394,0.947-5.91,2.608c-1.516,1.662-2.263,3.885-2.057,6.124l19.686,214c0.379,4.117,3.832,7.268,7.967,7.268h210.608
		c4.135,0,7.588-3.15,7.967-7.268l19.685-214C281.163,72.494,280.415,70.271,278.9,68.609z M147.667,105.624
		c8.303,0,15.034-6.73,15.034-15.033c0-1.148-0.141-2.262-0.384-3.336l21.291-21.29c4.819,7.012,7.648,15.493,7.648,24.626
		c0,24.035-19.554,43.589-43.588,43.589c-24.035,0-43.59-19.554-43.59-43.589c0-24.035,19.555-43.59,43.59-43.59
		c9.133,0,17.614,2.829,24.626,7.648l-21.292,21.292c-1.074-0.243-2.188-0.384-3.335-0.384c-8.302,0-15.033,6.729-15.033,15.033
		C132.633,98.894,139.365,105.624,147.667,105.624z M246.007,280.001h-90.34V149.585c29-4.067,51.421-28.966,51.421-58.994
		c0-32.858-26.648-59.59-59.505-59.59c-32.858,0-59.715,26.731-59.715,59.59c0,30.258,22.798,55.303,51.798,59.079v130.331H49.995
		l-18.214-198h34.965c3.808,0,7.087-2.684,7.842-6.415c3.374-16.696,12.468-31.846,25.607-42.658
		C113.461,22.012,130.32,16,147.668,16c17.347,0,34.206,6.012,47.471,16.928c13.14,10.812,22.233,25.962,25.607,42.658
		c0.755,3.731,4.034,6.415,7.842,6.415h35.633L246.007,280.001z"/>
	<circle cx="77.001" cy="238.668" r="8"/>
	<circle cx="110.001" cy="238.668" r="8"/>
	<circle cx="77.001" cy="205.668" r="8"/>
	<circle cx="110.001" cy="205.668" r="8"/>
	<circle cx="186.001" cy="238.668" r="8"/>
	<circle cx="219.001" cy="238.668" r="8"/>
	<circle cx="186.001" cy="205.668" r="8"/>
	<circle cx="219.001" cy="205.668" r="8"/>
</g>
</svg>